<?xml version="1.0" encoding="UTF-8"?>
<svg xmlns="http://www.w3.org/2000/svg" viewBox="0 0 348.66 288">
  <path fill="#FFFFFF" d="M348.66,1.14v274.82c-66.63-15.16-123.93-45.9-176.3-88.96C121.59,145.25,72.54,83.6,0,87.09v-23.98c38.75.88,73.55,16.85,104.62,38.75,23.61,16.64,44.3,37.07,66.74,55.16,42.45,34.22,87.97,60.06,135.64,86.17l32.67,20.78c-30.8-32.82-71.24-54.75-104.42-84.91-55.25-50.2-91.36-120.84-156.41-160.34-10.7-6.5-21.78-11.78-33.89-15.07.03-1.77,22.59,4.81,24.52,5.46,67.38,22.67,115.52,81.49,162.79,130.96l85.93,89.92c1.68-1.07-.41-2.19-1.02-2.98-17.25-22.57-35.99-44.08-53.41-66.5-17.67-22.74-52.06-63-48.85-92.79,3.34-31.01,51.17-53.41,77.79-60.58l-12.67,5.8c-77.82,48.67,4.13,135.16,33.46,187.76l30.15,53.27c-9.51-29.11-21.28-57.51-34.1-85.3-14.98-32.5-52.36-92.19-39.31-127.55,7.63-20.68,40.57-39.99,61.93-39.99h16.48Z"/>
  <path fill="rgba(255,255,255,0.7)" d="M0,107.07c43.7-4.01,81.81,22.31,114.78,47.57,32.07,24.57,61.29,53.42,97.02,72.85-.62,1.25-2.79.15-3.73-.28-9.73-4.48-20.86-11.24-30.17-16.79-34.06-20.32-64.9-48.2-102.98-60.37,40.87,29.73,49.36,95.07,1.67,123.08-22.43,13.17-51.1,15.22-76.6,14.82V107.07Z"/>
  <path fill="rgba(255,255,255,0.5)" d="M14.49.14c59.21,5.65,114.1,89.99,152.95,130.81l34.36,33.07-23.99-18.46C126.46,99.68,73.95,44.3,0,42.11V.14C4.7.46,9.86-.3,14.49.14Z"/>
</svg>
